# xmcd
#
# Track frame offsets: 
#        150
#        21981
#        41251
#        56044
#        71002
#        84162
#        96441
#        110932
#        130124
#        140380
#        152914
#        169731
#        187537
#        197031
#        209850
#        232213
#        255258
#        273844
#        283169
#        302502
#
# Disc length: 4160 seconds
#
# Revision: 1
# Processed by: cddbd v1.5.2PL0 Copyright (c) Steve Scherf et al.
# Submitted via: ExactAudioCopy v0.99pb4
#
DISCID=22103e14
DTITLE=Various Artist - 100 Grootste Kerst Hits ... allertijden, De [CD 2)
DYEAR=2006
DGENRE=Christmas
TTITLE0=Aguilera, Christina - Silent Night and Noche De Paz
TTITLE1=Backstreet Boys - Christmas Time
TTITLE2=Dana - It's Gonna Be a Cold, Cold Christmas
TTITLE3=Logan, Johnny - Do They Know It's Christmas
TTITLE4=Gray, Macy - Winter Wonderland
TTITLE5=Towers, Lee - The Most Wonderfull Time Of The Year
TTITLE6=Lauper, Cindy - December Child
TTITLE7=Freiheit - Keeping The Dream Alive
TTITLE8=Mathis, Johnny - It's Beginning To Look A Lot Like Christmas
TTITLE9=Reeves, Jimmy - An Old Christmas Card
TTITLE10=Showaddywaddy - Christmas Tears Will Fall
TTITLE11=K-Otic - Christmas Without You
TTITLE12=Faith, Percy - Joy To The World
TTITLE13=Bennett, Tony - Snowfall
TTITLE14=Hines, Simone - God Bless The Dreamer
TTITLE15=Vandross, Luther - Every Year, Every Christmas
TTITLE16=Nilsson, Harry - Remember Christmas
TTITLE17=Anderson, Lynn - Rockin' Around The Christmas Tree
TTITLE18=Whittaker, Roger - Hallelujah, It's Christmas
TTITLE19=Garfunkel, Art - O Come All Ye Faithfull
EXTD=YEAR: 2006
EXTT0=
EXTT1=
EXTT2=
EXTT3=
EXTT4=
EXTT5=
EXTT6=
EXTT7=
EXTT8=
EXTT9=
EXTT10=
EXTT11=
EXTT12=
EXTT13=
EXTT14=
EXTT15=
EXTT16=
EXTT17=
EXTT18=
EXTT19=
PLAYORDER=
